<?xml version="1.0" encoding="utf-8"?>
<!-- Generator: Adobe Illustrator 27.5.0, SVG Export Plug-In . SVG Version: 6.00 Build 0)  -->
<svg version="1.1" id="Layer_1" xmlns="http://www.w3.org/2000/svg" xmlns:xlink="http://www.w3.org/1999/xlink" x="0px" y="0px"
	 viewBox="0 0 32 19" style="enable-background:new 0 0 32 19;" xml:space="preserve">
<style type="text/css">
	.st0{stroke:#000000;stroke-linejoin:round;}
</style>
<path class="st0" d="M31.1,6.8c-0.3,1-0.9,1.6-1.1,2.7c0.1,0.8-0.9,0.9-1,1.9c-0.1,1.6-2.8,1.8-3,0.1c-0.5-0.1-1-1-1.6-0.1
	c-3.2-0.1-3.6-1.4-5.3,2c-0.9-0.4-1.5,1.6-2.4,0.8c-0.1,0-0.8-0.2-0.9-0.5c-1.4,0.1-0.1,1.1-2.2,1.3c-4.1-0.3-1.7,1.7-2.9,2.3
	c-2.2-0.2-4.8,1-6.5-0.9C4,15,1.7,15.7,2.1,14.6c-0.6-0.5-0.7-1.2-0.9-1.9c-0.7-0.7,0.5-2.8,1-3.6c1.1-1.4,2.2,0.8,4.2-1.1
	c0.2-1.3,1.3-0.1,1.3-2.2c0.5-0.9,1.5-1.1,2.2-2.1c0.1-0.7,1,0.1,1.4-0.4c0.8-0.1,0.9,0.2,0.9,1c0.4-0.2,1.2,0.2,1.2-0.4
	c0.2-0.1,0.1-0.6,0.4-0.6c0.4,0.1,0.7-0.6,1-0.6c0.5,0,0.8,0.9,0.9,1.4c0.1,0.5,1.2,0.4,0.7,1.7c-0.3,0.8,1-0.5,1.4,0.3
	c0.5,0.3,0.3-0.8,0.6-1c0.3-0.2,1.6-0.9,2-0.5c1.2-0.7,2,1.7,2.9-0.1c-0.5-0.7,0.9,0.2,0.9-0.5c0.6,0.1,1.3,0.3,2,0.1
	c0.3,0,0.6,0.7,0.9,0.5c0.7-0.3,1.1,0.9,1.4,1.4C29.4,6,30,6.6,31.1,6.8z"/>
</svg>
