<?xml version="1.0" encoding="UTF-8"?>
<!DOCTYPE svg PUBLIC "-//W3C//DTD SVG 1.1//EN" "http://www.w3.org/Graphics/SVG/1.1/DTD/svg11.dtd">
<!-- Creator: CorelDRAW Home & Student 2018 -->
<svg xmlns="http://www.w3.org/2000/svg" xml:space="preserve" width="210mm" height="157.5mm" version="1.1" style="shape-rendering:geometricPrecision; text-rendering:geometricPrecision; image-rendering:optimizeQuality; fill-rule:evenodd; clip-rule:evenodd"
viewBox="0 0 21000 15750"
 xmlns:xlink="http://www.w3.org/1999/xlink">
 <defs>
  <style type="text/css">
   <![CDATA[
    .str0 {stroke:black;stroke-width:17.64;stroke-miterlimit:2.61313}
    .fil5 {fill:#012169}
    .fil2 {fill:#192F5D}
    .fil1 {fill:#BD3D44}
    .fil4 {fill:#C8102E}
    .fil3 {fill:white}
    .fil0 {fill:white}
   ]]>
  </style>
 </defs>
 <g id="Layer_x0020_1">
  <metadata id="CorelCorpID_0Corel-Layer"/>
  <polygon class="fil0" points="-0,15750 21000,0 21000,15750 "/>
  <g id="_614441392">
   <path class="fil0" d="M3232.03 13325.98l-3232.03 0 0 1212.01 1616.01 0 1616.02 -1212.01zm3227.93 -2420.95l-6459.96 0 0 1212.01 4843.95 0 1616.01 -1212.01zm3232.03 -2424.02l-9691.99 0 0 1212.01 8075.97 0 1616.02 -1212.01zm3232.04 -2424.03l-12924.03 0 0 1212.01 11308.01 0 1616.02 -1212.01zm3227.92 -2420.94l-16151.95 0 0 1208.93 14540.03 0.01 1611.92 -1208.94zm3232.04 -2424.03l-19383.99 0 0 1212.01 17767.97 0 1616.02 -1212.01z"/>
   <path class="fil1" d="M-0 0l21000 0 -1616.01 1212.01 -19383.99 0 0 -1212.01zm1616.01 14537.99l-1616.01 0 0 1212.01 1616.01 -1212.01zm3232.04 -2424.03l-4848.05 0 0 1212.02 3232.03 0 1616.02 -1212.02zm3227.92 -2420.94l-8075.97 0 0 1212.01 6459.96 0 1616.01 -1212.01zm3232.04 -2424.03l-11308.01 0 0 1212.02 9691.99 0 1616.02 -1212.02zm3232.03 -2424.02l-14540.04 0 0 1215.09 12919.92 0 1620.12 -1215.09zm3227.93 -2420.95l-17767.97 0 0 1212.02 16151.96 -0.01 1616.01 -1212.01z"/>
   <polygon class="fil2" points="-0,0 11969.38,0 11969.38,6772.97 9691.99,8481.01 -0,8481.01 "/>
   <path class="fil3" d="M996.68 362.99l110.74 335.3 350.69 0 -283.01 206.1 107.67 338.38 -286.08 -209.18 -283.01 206.1 107.67 -335.3 -286.08 -206.1 356.82 0 104.59 -335.3zm1996.44 0l107.67 335.3 353.75 0 -286.08 206.1 107.67 338.38 -283.01 -209.18 -286.08 206.1 107.67 -335.3 -283.01 -206.1 350.67 0 110.75 -335.3zm1993.35 0l110.74 335.3 347.61 0 -283.01 206.1 107.67 338.38 -286.08 -209.18 -283.01 206.1 107.67 -335.3 -286.08 -206.1 353.75 0 110.74 -335.3zm1996.44 0l107.67 335.3 353.76 0 -286.08 206.1 110.74 338.38 -286.08 -209.18 -286.08 206.1 110.74 -335.3 -286.08 -206.1 350.67 0 110.74 -335.3zm1993.36 0l110.74 335.3 350.69 0 -283.01 206.1 107.67 338.38 -286.08 -209.18 -283.01 206.1 107.67 -335.3 -283.01 -206.1 350.67 0 107.67 -335.3zm1996.44 0l107.67 335.3 353.75 0 -286.08 206.1 110.74 338.38 -286.08 -209.18 -286.08 206.1 110.74 -335.3 -286.08 -206.1 353.75 0 107.67 -335.3zm-8976.27 849.02l107.67 335.3 353.75 0 -286.08 206.11 104.59 335.3 -276.86 -206.1 -286.08 206.1 101.51 -335.3 -276.86 -206.1 350.69 -0.01 107.67 -335.3zm1993.35 0l110.74 335.3 350.69 0 -286.08 206.1 110.74 335.3 -286.08 -206.1 -286.08 206.1 110.73 -335.29 -286.08 -206.1 353.76 -0.01 107.66 -335.3zm1996.44 0l107.67 335.3 353.76 0 -286.08 206.1 107.67 335.3 -283.01 -206.1 -286.08 206.1 107.67 -335.3 -283.01 -206.1 350.67 0 110.74 -335.3zm1993.36 0l110.74 335.3 350.69 0 -286.08 206.1 110.74 335.3 -286.08 -206.1 -283.01 206.1 107.67 -335.3 -286.08 -206.1 356.82 0 104.59 -335.3zm1996.44 0l107.67 335.3 353.75 0 -286.08 206.11 107.67 335.3 -283.01 -206.1 -286.08 206.1 107.67 -335.3 -283.01 -206.1 350.67 -0.01 110.75 -335.3zm-8979.35 845.95l110.74 341.45 350.69 0 -283.01 206.1 107.67 335.3 -286.08 -209.18 -283.01 209.18 107.67 -338.38 -286.08 -206.1 356.82 0.01 104.59 -338.38zm1996.44 0l107.67 338.38 353.75 0 -286.08 206.1 107.67 335.3 -283.01 -209.18 -286.08 209.18 107.67 -338.38 -283.01 -206.1 350.67 0 110.75 -335.3zm1993.35 0l110.74 338.38 347.61 0 -283.01 206.1 107.67 335.3 -286.08 -209.18 -283.01 209.18 107.67 -338.38 -286.08 -206.1 353.75 0 110.74 -335.3zm1996.44 0l107.67 338.38 353.76 0 -286.08 206.1 110.74 335.3 -286.08 -209.18 -286.08 209.18 110.74 -338.38 -286.08 -206.1 350.67 0 110.74 -335.3zm1993.36 0l110.74 338.38 350.69 0 -283.01 206.1 107.67 335.3 -286.08 -209.18 -283.01 209.18 107.67 -338.38 -283.01 -206.1 350.67 0 107.67 -335.3zm1996.44 0l107.67 338.38 353.75 0 -286.08 206.1 110.74 335.3 -286.08 -209.18 -286.08 209.18 110.74 -338.38 -286.08 -206.1 353.75 0 107.67 -335.3zm-8976.27 849.02l107.67 335.3 353.75 0.01 -286.08 206.1 107.67 338.38 -283.01 -209.18 -286.08 206.1 107.67 -335.3 -283.01 -206.1 350.67 0 110.75 -335.31zm1993.35 0l110.74 335.3 350.69 0.01 -286.08 206.1 110.74 338.38 -286.08 -209.18 -286.08 206.1 110.74 -335.3 -286.08 -206.1 353.75 0 107.66 -335.31zm1996.44 0l107.67 335.3 353.76 0.01 -286.08 206.1 107.67 338.38 -283.01 -209.18 -286.08 206.1 107.67 -335.3 -283.01 -206.1 350.67 0 110.74 -335.31zm1993.36 0l110.74 335.3 350.69 0.01 -283.01 206.1 107.67 338.38 -286.08 -209.18 -283.01 206.1 107.67 -335.3 -286.08 -206.1 356.82 0 104.59 -335.31zm1996.44 0l107.67 335.3 353.75 0.01 -286.08 206.1 107.67 338.38 -283.01 -209.18 -286.08 206.1 107.67 -335.3 -283.01 -206.1 350.67 0 110.75 -335.31zm-8979.35 849.03l110.74 335.3 350.69 0 -283.01 206.1 107.67 338.38 -286.08 -209.18 -283.01 206.1 107.67 -335.3 -286.08 -206.1 356.82 0 104.59 -335.3zm1996.44 0l107.67 335.3 353.75 0 -286.08 206.1 107.67 335.3 -283.01 -206.1 -286.08 206.1 107.67 -335.3 -283.01 -206.1 350.67 0 110.75 -335.3zm1993.35 0l110.74 335.3 347.61 0 -283.01 206.1 107.67 338.38 -286.08 -209.18 -283.01 206.1 107.67 -335.3 -286.08 -206.1 353.75 0 110.74 -335.3zm1996.44 0l107.67 335.3 353.76 0 -286.08 206.1 110.74 338.38 -286.08 -209.18 -286.08 206.1 110.74 -335.3 -286.08 -206.1 350.67 0 110.74 -335.3zm1993.36 0l110.74 335.3 350.69 0 -283.01 206.1 107.67 338.38 -286.08 -209.18 -283.01 206.1 107.67 -335.3 -283.01 -206.1 350.67 0 107.67 -335.3zm1996.44 0l107.67 335.3 353.75 0 -286.08 206.1 110.74 338.38 -286.08 -209.18 -286.08 206.1 110.74 -335.3 -286.08 -206.1 353.75 0 107.67 -335.3zm-8976.27 849.02l107.67 335.3 353.75 0 -286.08 206.1 107.67 335.3 -283.01 -209.18 -286.08 209.18 107.67 -338.38 -283.01 -206.1 350.67 0.01 110.75 -332.23zm1993.35 0l110.74 335.3 350.69 0 -286.08 206.1 110.74 335.3 -286.08 -209.18 -286.08 209.18 110.74 -338.38 -286.08 -206.1 353.75 0.01 107.66 -332.23zm1996.44 0l107.67 335.3 353.76 0 -286.08 206.1 107.67 335.3 -283.01 -209.18 -286.08 209.18 107.67 -338.38 -283.01 -206.1 350.67 0.01 110.74 -332.23zm1993.36 0l110.74 335.3 350.69 0 -283.01 206.1 107.67 335.3 -286.08 -209.18 -283.01 209.18 107.67 -338.38 -286.08 -206.1 356.82 0.01 104.59 -332.23zm1996.44 0l107.67 335.3 353.75 0 -286.08 206.1 107.67 335.3 -283.01 -209.18 -286.08 209.18 107.67 -338.38 -283.01 -206.1 350.67 0.01 110.75 -332.23zm-8979.35 845.95l110.74 338.38 350.69 0 -283.01 206.1 107.67 332.23 -286.08 -206.1 -283.01 206.1 107.67 -335.3 -286.08 -206.1 356.82 -0.01 104.59 -335.3zm1996.44 0l107.67 338.38 353.75 0 -286.08 206.1 110.74 332.23 -286.08 -206.1 -286.08 206.1 110.74 -335.3 -286.08 -206.1 350.67 -0.01 110.75 -335.3zm1993.35 0l110.74 338.38 347.61 0 -283.01 206.1 107.67 332.23 -286.08 -206.1 -283.01 206.1 107.67 -335.3 -286.08 -206.1 353.75 -0.01 110.74 -335.3zm1996.44 0l107.67 338.38 353.76 0 -286.08 206.1 110.74 332.23 -286.08 -206.1 -286.08 206.1 110.74 -335.3 -286.08 -206.1 350.67 -0.01 110.74 -335.3zm1993.36 0l110.74 338.38 350.69 0 -283.01 206.1 107.67 332.23 -286.08 -206.1 -283.01 206.1 107.67 -335.3 -283.01 -206.1 350.67 -0.01 107.67 -335.3zm1996.44 0l107.67 338.38 353.75 0 -286.08 206.1 110.74 332.23 -286.08 -206.1 -286.08 206.1 110.74 -335.3 -286.08 -206.1 353.75 -0.01 107.67 -335.3zm-8976.27 849.02l107.67 335.3 353.75 0 -286.08 206.1 107.67 338.38 -283.01 -209.18 -286.08 206.1 107.67 -335.3 -283.01 -206.1 350.67 0 110.75 -335.3zm1993.35 0l110.74 335.3 350.69 0 -286.08 206.1 110.74 338.38 -286.08 -209.18 -286.08 206.1 110.74 -335.3 -286.08 -206.1 353.75 0 107.66 -335.3zm1996.44 0l107.67 335.3 353.76 0 -286.08 206.1 107.67 338.38 -283.01 -209.18 -286.08 206.1 107.67 -335.3 -283.01 -206.1 350.67 0 110.74 -335.3zm1993.36 0l110.74 335.3 350.69 0 -283.01 206.1 107.67 338.38 -286.08 -209.18 -283.01 206.1 107.67 -335.3 -286.08 -206.1 356.82 0 104.59 -335.3zm1996.44 0l107.67 335.3 353.75 0 -286.08 206.1 107.67 338.38 -283.01 -209.18 -286.08 206.1 107.67 -335.3 -283.01 -206.1 350.67 0 110.75 -335.3zm-8979.35 849.02l110.74 335.3 350.69 0.01 -283.01 206.1 107.67 335.3 -286.08 -206.1 -283.01 206.1 107.67 -338.38 -286.08 -206.1 356.82 0 104.59 -332.23zm1996.44 0l107.67 335.3 353.75 0.01 -286.08 206.1 110.74 335.3 -286.08 -206.1 -286.08 206.1 110.74 -338.38 -286.08 -206.1 350.67 0 110.75 -332.23zm1993.35 0l110.74 335.3 347.61 0.01 -276.86 206.1 107.67 335.3 -286.08 -206.1 -283.01 206.1 107.67 -338.38 -286.08 -206.1 353.75 0 104.59 -332.23zm1996.44 0l107.67 335.3 353.76 0.01 -286.08 206.1 110.74 335.3 -286.08 -206.1 -286.08 206.1 110.74 -338.38 -286.08 -206.1 350.67 0 110.74 -332.23zm1993.36 0l110.74 335.3 350.69 0.01 -283.01 206.1 107.67 335.3 -286.08 -206.1 -283.01 206.1 107.67 -338.38 -283.01 -206.1 350.67 0 107.67 -332.23zm1996.44 0l96.13 299.35 -295.53 221.65 -262.02 -188.77 353.75 0 107.67 -332.23z"/>
  </g>
  <polygon class="fil0" points="-0,15750 21000,0 21000,2034.38 13125,7907.81 21000,13748.44 21000,15750 18375,15750 10500,9876.56 2657.81,15750 "/>
  <polygon class="fil4" points="8356.25,9482.81 8957.81,9489.1 8957.81,15750 12107.81,15750 12107.81,9499.68 21000,9482.81 21000,6332.81 12556.25,6332.81 "/>
  <path class="fil4" d="M15650.94 10500l5349.06 3937.5 0 1312.5 -7149.5 -5250 1800.44 0zm-1650.95 -5250l7000.01 -5250 0 98.44 -6823.08 5151.56 -176.93 0zm-6092.18 5250l0 648.05 -6135.94 4601.95 -1771.87 0 7045.72 -5254.94 862.09 4.94z"/>
  <polygon class="fil5 str0" points="7907.81,11817.99 2657.81,15750 7907.81,15750 "/>
  <polygon class="fil5 str0" points="18375,15750 13157.81,11858.84 13157.81,15750 "/>
  <polygon class="fil5 str0" points="21000,10500 16620.08,10500 21000,13748.44 "/>
  <polygon class="fil5 str0" points="21000,2034.38 16688.54,5250 21000,5250 "/>
 </g>
</svg>
